<?xml version="1.0" encoding="UTF-8"?><svg id="Layer_1" xmlns="http://www.w3.org/2000/svg" viewBox="0 0 2407.94 1978"><defs><style>.cls-1{fill:#c7c8d0;}</style></defs><path class="cls-1" d="M1424.87,588.46v.28c54.19,53.82,141.94,53.82,196.12-.28,54.19-54.19,54.19-142.03,0-196.22-54.19-54.19-141.94-54.19-196.12,0-54.19,54.19-54.19,142.31,0,196.49v-.28ZM1228.75,0l686.66,98.29,97.83,686.57L758.72,1959.37c-27.09,26.72-78.82,23.78-105.91-2.94L14.4,1323.9c-27.09-27.09-12.38-117.06,14.71-144.16L1228.75,0Z"/><path class="cls-1" d="M1932.84,241.21s263.78-259.21,428.2,30.64c51.16,90.18,62.77,198.78,23.35,294.67-29.01,70.56-86.81,140.48-201.04,162.44-2.1,.4-4.22,.93-6.24,1.64-14.76,5.19-86.86,28.45-147.03,10.83-16.52-4.84-28.66-18.91-31.09-35.95l-.14-1c-3.92-27.53,17.22-52.08,44.9-52.22,67.35-.34,182.18-13.94,240.58-95.82,45.56-63.87,36.51-154.17,34.11-166.96-1.7-9.08-9.12-45.26-34.64-84.53-22.99-35.39-50.02-56.87-59.99-63.71-58.93-40.45-175.29-18.05-282.19,61.75l-8.8-61.79Z"/></svg>