<?xml version="1.0" encoding="UTF-8"?><svg id="Layer_1" xmlns="http://www.w3.org/2000/svg" viewBox="0 0 114.55 110.75"><defs><style>.cls-1{fill:#c7c8d0;}</style></defs><path class="cls-1" d="M51.02,64.22c9.62-1.71,14.53,4.93,14.53,4.93l.05,.05c.07,.08,.13,.15,.2,.23,.97,1.19,1.66,2.95,1.66,2.95l.41,1.27,46.68-12.89-6.68-24.76-59.86,16.41,3.01,11.82Zm-5.88,31.53c-4.32,0-7.82-3.5-7.82-7.82s3.5-7.82,7.82-7.82,7.82,3.5,7.82,7.82-3.5,7.82-7.82,7.82Zm15.85-18.3l2.97-2.97-5.38-5.38-2.96,2.97c-1.72-1.14-3.65-1.99-5.71-2.53v-4.43h-9.54v4.43c-2.1,.54-4.07,1.42-5.82,2.6l-2.84-2.85-5.38,5.38,2.89,2.89c-1.11,1.69-1.93,3.58-2.46,5.59h-4.43v9.54h4.43c.53,2.06,1.39,3.99,2.53,5.71l-2.97,2.96,5.38,5.37,2.97-2.97c1.73,1.15,3.66,2,5.72,2.53v4.42h9.51v-4.42c1.99-.51,3.88-1.34,5.61-2.46l3.08,3.08,5.38-5.37-3.04-3.04c1.19-1.76,2.07-3.74,2.61-5.86h4.42v-9.48h-4.42c-.53-2.07-1.39-4.01-2.54-5.74Zm51.79-4.9l-.82-3.43-41.68,11.59,3.22,10.11,41.04-11.95-1.52-6.38-.25,.07Zm-76.48-9.23v.02l6.54-1.97L27.04,0H0V8.66H19.56l13.78,55.57,2.96-.9Zm50.6-26.72l-6.84-24.76-39.95,11.24,6.38,24.76,40.41-11.24Z"/></svg>