<?xml version="1.0" encoding="UTF-8"?><svg id="Layer_1" xmlns="http://www.w3.org/2000/svg" viewBox="0 0 110.75 110.75"><defs><style>.cls-1{fill:#c7c8d0;}</style></defs><path class="cls-1" d="M106.93,48.45l-10.02-10.02V13.84c0-3.82-3.1-6.92-6.92-6.92h-6.92c-3.82,0-6.92,3.1-6.92,6.92v3.82L62.3,3.86c-1.87-1.8-3.61-3.86-6.92-3.86s-5.05,2.06-6.92,3.86L3.82,48.45c-2.16,2.23-3.82,3.89-3.82,6.92,0,3.89,2.99,6.92,6.92,6.92h6.92v41.53c0,3.82,3.1,6.92,6.92,6.92h20.77v-34.61c0-3.82,3.1-6.92,6.92-6.92h13.84c3.82,0,6.92,3.1,6.92,6.92v34.61h20.77c3.82,0,6.92-3.1,6.92-6.92V62.3h6.92c3.93,0,6.92-3.03,6.92-6.92,0-3.03-1.66-4.69-3.82-6.92Z"/></svg>