<?xml version="1.0" encoding="UTF-8"?><svg id="Layer_2" xmlns="http://www.w3.org/2000/svg" viewBox="0 0 6021.29 1718.77"><defs><style>.cls-1,.cls-2{fill:#c7c8d0;}.cls-2{font-family:Calibri, Calibri;font-size:1247.7px;}</style></defs><g id="Layer_1-2"><text class="cls-2" transform="translate(2665.72 1328.87) scale(.93 1)"><tspan x="0" y="0">Accueil</tspan></text><path class="cls-1" d="M1394.8,632.03l-130.74-130.74V180.58c0-49.84-40.45-90.29-90.29-90.29h-90.29c-49.84,0-90.29,40.45-90.29,90.29v49.84L812.61,50.32C788.17,26.85,765.54,0,722.32,0s-65.85,26.85-90.29,50.32L49.84,632.03C21.67,661.16,0,682.83,0,722.32c0,50.8,39.01,90.29,90.29,90.29h90.29v541.74c0,49.84,40.45,90.29,90.29,90.29h270.87v-451.45c0-49.84,40.45-90.29,90.29-90.29h180.58c49.84,0,90.29,40.45,90.29,90.29v451.45h270.87c49.84,0,90.29-40.45,90.29-90.29V812.61h90.29c51.28,0,90.29-39.49,90.29-90.29,0-39.49-21.67-61.16-49.84-90.29Z"/></g></svg>