<?xml version="1.0" encoding="UTF-8"?><svg id="Layer_2" xmlns="http://www.w3.org/2000/svg" viewBox="0 0 1206.5 1008.62"><defs><style>.cls-1{fill:#7c7c75;}.cls-2{fill:#606060;}</style></defs><g id="Layer_2-2"><g><rect class="cls-1" width="1206.5" height="1008.62" rx="84.66" ry="84.66"/><path class="cls-2" d="M1165.04,933.36s43.26-45.14-190.68-123.73l-166.65-68.55s-31.68-29.49-29.06-74.63l-28.84-8.21-7.21-74.56s41.95-67.72,47.85-104.65c0,0,13.77,4.79,21.63-15.05,0,0,23.6-54.72,18.35-101.92,0,0-1.31-4.79-8.52-2.74,0,0,66.21-143.64-35.4-213.41,0,0-38.02-78.66-155.36-77.29,0,0-78.66,2.05-118.65,25.31,0,0-79.97,84.82-125.86,61.56,0,0-24.25,103.97,16.39,196.99l.66,8.21s-15.08-7.52-18.35,3.42c0,0,.66,78.66,27.53,110.12,0,0,6.56,9.58,13.11,4.79,0,0,13.11,64.98,47.85,106.02l-7.21,71.14-30.15,10.94s3.93,49.25-22.94,70.45l-194.69,79.34s-199.27,55.02-164.53,116.43H1165.04Z"/></g></g></svg>