<?xml version="1.0" encoding="UTF-8"?><svg id="Layer_1" xmlns="http://www.w3.org/2000/svg" xmlns:xlink="http://www.w3.org/1999/xlink" viewBox="0 0 1931.44 2016.5"><defs><style>.cls-1{font-family:Stencil, Stencil;font-size:484.45px;}.cls-1,.cls-2,.cls-3,.cls-4{fill:#f29b0f;}.cls-2{font-family:Vivaldii, Vivaldi;stroke:#1f2621;}.cls-2,.cls-5,.cls-4{font-size:155.88px;}.cls-2,.cls-6{stroke-miterlimit:10;}.cls-5,.cls-4{font-family:EngraversMT, 'Engravers MT';}.cls-6{fill:#1f2621;stroke:#f29b0f;}.cls-7{fill:url(#linear-gradient);}</style><linearGradient id="linear-gradient" x1="1021.81" y1="1993.87" x2="1021.81" y2="1883.2" gradientTransform="matrix(1, 0, 0, 1, 0, 0)" gradientUnits="userSpaceOnUse"><stop offset=".34" stop-color="#4b4747"/><stop offset=".51" stop-color="#755c38"/><stop offset="1" stop-color="#f29b0f"/></linearGradient></defs><path class="cls-6" d="M1287.85,1000.16S1476.61,177.61,1928.19,2.31c0,0-580.61,39.73-640.34,997.85Z"/><g><text class="cls-5" transform="translate(380.64 1885.41) scale(.82 -1)"><tspan x="0" y="0">V E R I T A B L E</tspan></text><g><path class="cls-7" d="M383.56,1988.92h3.05c6.31,0,11.45-5.3,15.43-15.91l33.66-89.81,2.18,.15,28.87,79.54c2.2,5.94,4.38,10.69,6.53,14.27,2.16,3.58,4.54,6.32,7.16,8.22,2.61,1.9,5.58,3.08,8.9,3.54v2.82h-35.03v-2.82c3.94-.25,7.02-1.67,9.24-4.26,2.22-2.59,3.33-6.06,3.33-10.43,0-3.04-.79-6.67-2.36-10.88l-19.91-54.88-23.71,63.63c-1.2,3.35-1.8,6.24-1.8,8.68,0,2.59,.81,4.59,2.43,6.01,1.62,1.42,3.84,2.13,6.66,2.13h6.22v2.82h-50.84v-2.82Z"/><path class="cls-7" d="M537.56,1988.92h2.36c5.39,0,9.37-1.57,11.95-4.72,2.57-3.15,3.86-8.02,3.86-14.61v-61.88c0-12.99-5.27-19.48-15.8-19.48h-2.36l.12-2.82h94.64v43.77h-2.3c-1.41-6.14-2.76-11.01-4.04-14.61-2.24-6.29-5.39-11.54-9.46-15.76-2.36-2.49-4.9-4.5-7.59-6.05-2.7-1.55-5.73-2.69-9.12-3.42-3.38-.74-7.19-1.1-11.42-1.1h-14.31v47.57h3.61c6.89,0,12.2-2.82,15.93-8.45,1.33-2.08,2.42-4.16,3.27-6.24,.85-2.08,1.62-4.78,2.3-8.11,.68-3.32,1.28-6.86,1.77-10.62h2.18v69.72h-2.18c-.42-4.26-.87-7.49-1.37-9.67-1-5.13-2.53-9.54-4.6-13.24-4.02-7.21-9.46-10.81-16.3-10.81h-4.6v50.54h17.11c7.3,0,13.5-1.29,18.6-3.88,3.07-1.62,5.91-4.34,8.52-8.14,2.16-3.2,3.91-6.58,5.26-10.16,1.35-3.58,2.87-8.97,4.57-16.17h1.87v41.18h-92.46v-2.82Z"/><path class="cls-7" d="M772.33,1885.41h32.6v2.97h-2.43c-5.02,0-8.88,1.09-11.57,3.27-1.37,1.27-3.1,3.49-5.2,6.66-2.09,3.17-4.3,6.91-6.63,11.23-.87,1.57-1.64,2.97-2.3,4.19-.66,1.22-1.68,3.04-3.05,5.48l-2.05,3.81c-3.48,.96-6.6,2.04-9.33,3.24-2.74,1.19-5.46,2.65-8.15,4.38-2.7,1.72-5.7,3.91-9.02,6.55v.3c6.72,0,11.72,.15,15,.46,4.31,.46,8.65,1.34,13,2.66,4.36,1.32,7.8,2.82,10.33,4.49,6.8,4.87,10.2,11.31,10.2,19.33,0,2.94-.53,5.91-1.59,8.91-1.06,2.99-2.48,5.58-4.26,7.76-3.11,3.86-7.32,6.6-12.63,8.22-5.31,1.62-12.53,2.44-21.65,2.44h-67.39v-2.82h2.36c5.39,0,9.37-1.57,11.95-4.72,2.57-3.15,3.86-8.02,3.86-14.61v-61.88c0-6.54-1.3-11.4-3.89-14.58-2.59-3.17-6.56-4.76-11.92-4.76h-2.36v-2.97h54.88v2.97h-2.55c-5.31,0-9.27,1.6-11.88,4.79-2.61,3.2-3.92,8.04-3.92,14.54v29.76h19.54l30.05-52.06Zm-49.59,103.51h25.14c16.8,0,25.2-8.07,25.2-24.2,0-5.63-.92-10.24-2.77-13.81-1.85-3.58-4.65-6.24-8.4-7.99-3.75-1.75-8.56-2.63-14.4-2.63h-24.76v48.64Z"/><path class="cls-7" d="M855.33,1885.41h54.76v2.97h-2.43c-5.31,0-9.26,1.58-11.85,4.76-2.59,3.17-3.89,8.03-3.89,14.58v61.88c0,6.6,1.29,11.47,3.86,14.61,2.57,3.15,6.53,4.72,11.88,4.72h2.43v2.82h-54.76v-2.82h2.43c4.98,0,8.71-1.35,11.2-4.03,1.37-1.32,2.4-2.97,3.08-4.95,.68-1.98,1.19-4.64,1.52-7.99v-64.24c0-6.54-1.3-11.4-3.89-14.58-2.59-3.17-6.56-4.76-11.92-4.76h-2.43v-2.97Z"/><path class="cls-7" d="M961.85,1937.77h2.18c.54,5.58,1.08,9.74,1.62,12.48,1.66,8.07,4.08,15.02,7.28,20.86,6.47,11.87,14.89,17.81,25.26,17.81h5.6v-81.21c0-12.89-5.27-19.33-15.8-19.33h-13v-2.97h75.91v2.97h-13.13c-10.49,0-15.74,6.44-15.74,19.33v81.21h4.54c10.21,0,18.62-5.51,25.26-16.52,5.6-9.69,8.92-21.29,9.96-34.78l1.99,.15v53.96h-101.92v-53.96Z"/><path class="cls-7" d="M1136.33,1917.37c-4.19-11.52-8.48-19.36-12.88-23.52-1.87-1.78-3.56-3.04-5.07-3.81-1.51-.76-3.56-1.32-6.13-1.67v-2.97h35.4v2.97c-1.66,.1-2.94,.29-3.83,.57-.89,.28-1.9,.82-3.02,1.64-1.7,1.17-3.08,2.89-4.14,5.18s-1.59,4.59-1.59,6.93c0,2.74,.46,5.45,1.37,8.14l2.8,7.92h36.84l1.43-3.88c.29-.66,.56-1.34,.81-2.06,.25-.71,.44-1.22,.56-1.52,2.03-5.33,3.35-9.01,3.95-11.04,.6-2.03,.9-3.76,.9-5.18,0-2.28-.76-3.97-2.27-5.06-1.51-1.09-3.91-1.64-7.19-1.64h-6.6v-2.97h50.46v2.97h-2.3c-2.36,0-4.42,.42-6.16,1.26-1.74,.84-3.31,2.19-4.7,4.07s-2.64,4.26-3.76,7.16l-34.97,93.01h-2.3l-27.63-76.49Zm38.51,4.19h-34.53l17.05,47.42,17.48-47.42Z"/><path class="cls-7" d="M1266.18,1989.07h2.55c5.35,0,9.32-1.6,11.92-4.8,2.59-3.2,3.89-8.09,3.89-14.69v-61.88c0-6.54-1.3-11.4-3.89-14.58-2.59-3.17-6.56-4.76-11.92-4.76h-2.55v-2.97h63.9c8,0,14.95,1.1,20.84,3.31,5.89,2.21,10.42,5.35,13.6,9.44,3.17,4.08,4.76,8.87,4.76,14.35,0,9.94-5.27,17.76-15.8,23.44-3.86,1.93-8.77,3.58-14.75,4.95v.3c4.69,1.57,8.32,2.97,10.89,4.19s4.98,2.74,7.22,4.57c5.6,4.52,8.4,9.87,8.4,16.06,0,3.81-.89,7.37-2.68,10.69-1.78,3.32-4.29,6.15-7.53,8.49-2.61,1.98-6.22,3.56-10.83,4.76-4.6,1.19-9.38,1.79-14.31,1.79h-63.72v-2.66Zm49.47-49.55c7.51,0,13.21-.63,17.11-1.9,3.9-1.27,7.2-3.55,9.89-6.85,3.57-4.16,5.35-9.77,5.35-16.82,0-8.27-2.2-14.65-6.6-19.14-4.4-4.49-10.72-6.74-18.98-6.74h-19.54v51.45h12.76Zm9.08,49.55c6.89,0,11.98-1.79,15.28-5.37s4.95-9.07,4.95-16.48c0-16.49-7.74-24.74-23.21-24.74h-18.85v46.58h21.84Z"/><path class="cls-7" d="M1418.88,1988.92h3.11c10.54,0,15.8-6.45,15.8-19.33v-61.88c0-12.99-5.27-19.48-15.8-19.48h-3.24l.12-2.82h96.88v47.04h-2.3c-1.16-4.87-2.34-9.18-3.55-12.94-1.2-3.76-2.47-6.95-3.8-9.59-1.33-2.64-2.86-5.3-4.6-7.99-2.9-4.31-6.33-7.68-10.27-10.08-3.94-2.41-8.13-3.62-12.57-3.62h-22.52v81.37c0,6.6,1.29,11.47,3.86,14.61,2.57,3.15,6.53,4.72,11.88,4.72h6.28v2.82h-59.3v-2.82Z"/><path class="cls-7" d="M1565.28,1988.92h2.36c5.39,0,9.37-1.57,11.95-4.72,2.57-3.15,3.86-8.02,3.86-14.61v-61.88c0-12.99-5.27-19.48-15.8-19.48h-2.36l.12-2.82h94.64v43.77h-2.3c-1.41-6.14-2.76-11.01-4.04-14.61-2.24-6.29-5.39-11.54-9.46-15.76-2.36-2.49-4.89-4.5-7.59-6.05-2.7-1.55-5.74-2.69-9.12-3.42-3.38-.74-7.19-1.1-11.42-1.1h-14.31v47.57h3.61c6.89,0,12.2-2.82,15.93-8.45,1.33-2.08,2.42-4.16,3.27-6.24,.85-2.08,1.62-4.78,2.3-8.11s1.28-6.86,1.77-10.62h2.18v69.72h-2.18c-.42-4.26-.87-7.49-1.37-9.67-1-5.13-2.53-9.54-4.6-13.24-4.02-7.21-9.46-10.81-16.3-10.81h-4.6v50.54h17.11c7.3,0,13.5-1.29,18.6-3.88,3.07-1.62,5.91-4.34,8.52-8.14,2.16-3.2,3.91-6.58,5.26-10.16,1.35-3.58,2.87-8.97,4.57-16.17h1.87v41.18h-92.46v-2.82Z"/></g></g><text class="cls-2" transform="translate(1106.53 1651.31) scale(1.36 1)"><tspan x="0" y="0">opticien</tspan></text><text class="cls-4" transform="translate(374.72 1864.53) scale(.82 1)"><tspan x="0" y="0">V E R I T A B L E</tspan></text><g><path class="cls-6" d="M629.58,245.49l515.41,1116.35-143.36,370.35h-38.23L277.66,267.52S191.65,33.37,.5,38.15V2.31H421.02s323.28-11.66,368.66,24.27c27.23,21.56-223.21,72.5-206.19,119.09l46.09,99.82"/><rect class="cls-3" x="348.1" y="372.8" width="327.42" height="20.67" transform="translate(-114.39 254.24) rotate(-25.19)"/><rect class="cls-3" x="426.72" y="539.97" width="327.42" height="20.67" transform="translate(-178.06 303.59) rotate(-25.19)"/><rect class="cls-3" x="366.48" y="411.87" width="327.42" height="20.67" transform="translate(-129.27 265.77) rotate(-25.19)"/><text class="cls-1" transform="translate(398.14 517.36) rotate(64.81) scale(.27 1)"><tspan x="0" y="0">d</tspan></text></g></svg>