<?xml version="1.0" encoding="UTF-8"?><svg id="Layer_2" xmlns="http://www.w3.org/2000/svg" viewBox="0 0 76.05 76.37"><defs><style>.cls-1{fill:#e2690e;}</style></defs><g id="Layer_2-2"><g><path class="cls-1" d="M28.12,65.1c3.04,1.1,6.32,1.71,9.74,1.71,15.8,0,28.62-12.81,28.62-28.62s-12.81-28.62-28.62-28.62c-14.28,0-26.11,10.46-28.26,24.13-1.32-.12-2.65-.24-4.04-.19-1.28,.04-2.54,.05-3.8,.08-.42-.14-.87-.23-1.37-.26-.14,0-.26-.01-.4-.02C2.39,14.53,18.43,0,37.87,0c21.09,0,38.19,17.1,38.19,38.19s-17.1,38.19-38.19,38.19c-5.06,0-9.88-.99-14.3-2.78l4.56-8.5Z"/><path class="cls-1" d="M0,33.32H9.59l12.42,21.71,12.07-21.71h9.65l-21.86,38.96L0,33.32Z"/></g></g></svg>