<?xml version="1.0" encoding="UTF-8"?><svg id="Layer_1" xmlns="http://www.w3.org/2000/svg" viewBox="0 0 1266.07 510.71"><defs><style>.cls-1{fill:#6c5e63;}.cls-2{fill:#282828;}</style></defs><rect class="cls-2" width="1266.07" height="510.71"/><path class="cls-1" d="M833.33,142.69c-82.16,2.79-132.63,24.76-185.69,28.29-53.05-3.54-103.53-25.51-185.69-28.29-83.47-2.83-237.68,12.73-237.68,12.73l1.41,48.1s20.51,6.37,25.47,26.88c4.95,20.51,16.27,132.99,65.78,157.74,40.81,20.41,105.91,28.88,144.31,24.76,39.61-4.25,77.81-14.15,109.64-67.21,31.83-53.05,36.08-96.91,48.81-104.69,12.73-7.78,27.94-8.49,27.94-8.49,0,0,15.21,.71,27.94,8.49,12.73,7.78,16.97,51.64,48.81,104.69,31.83,53.06,70.03,62.96,109.64,67.21,38.4,4.11,103.5-4.36,144.31-24.76,49.51-24.76,60.83-137.23,65.78-157.74,4.95-20.51,25.46-26.88,25.46-26.88l1.42-48.1s-154.2-15.56-237.68-12.73Zm-247.42,104.09c-.05,.67-.1,1.34-.16,2.02-2.12,23.34-10.61,55.88-43.86,106.1-33.25,50.22-140.06,48.81-200.89,24.05-55.32-22.52-59.42-127.33-54.47-164.11,.63-4.66,1.45-9.07,2.61-13.23,8.02-28.6,32.32-44.87,121.88-45.48,102.57-.71,159.16,21.22,170.48,49.52,0,0,6,18.67,4.4,41.13Zm368.39,132.18c-60.84,24.76-167.65,26.17-200.9-24.05-33.25-50.22-41.74-82.76-43.86-106.1-.06-.68-.11-1.35-.16-2.02-1.6-22.45,4.41-41.13,4.41-41.13,11.32-28.29,67.91-50.22,170.48-49.52,89.57,.62,113.87,16.88,121.89,45.48,1.16,4.16,1.99,8.57,2.62,13.23,4.94,36.78,.84,141.6-54.47,164.11Z"/></svg>