<?xml version="1.0" encoding="UTF-8"?><svg id="Layer_1" xmlns="http://www.w3.org/2000/svg" viewBox="0 0 679.59 667.14"><defs><style>.cls-1{fill:#c7c8d0;}</style></defs><path class="cls-1" d="M453.92,472.61c-17.91-21.92-32.63-47.3-37.11-74.92-2.18-13.49-1.71-26.88,1.12-39.82,1.03-4.72-.11-9.66-3.2-13.37h0c-2.25-2.7-5.35-4.56-8.79-5.27-16.83-3.5-34.33-5.34-52.28-5.34h-112.24C108.08,333.88,0,435.53,0,560.92H0c0,58.67,50.57,106.23,112.95,106.23H482.11c31.05,0,56.06-22.21,73.72-50.49,21.62-34.63,6.61-80.55-31.26-95.79-26.04-10.48-49.02-21.78-70.65-48.25Z"/><path class="cls-1" d="M397.08,343.18c-3.39-1-6.8-1.93-10.25-2.78l7.97,10.17c.68-2.48,1.44-4.95,2.28-7.39Z"/><circle class="cls-1" cx="288.58" cy="141.36" r="141.36" transform="translate(-15.43 245.46) rotate(-45)"/><polygon class="cls-1" points="679.59 338.64 593.49 338.64 593.49 255.03 522.36 255.03 522.36 338.64 436.25 338.64 436.25 409.77 522.36 409.77 522.36 498.37 593.49 498.37 593.49 409.77 679.59 409.77 679.59 338.64"/></svg>